<svg xmlns="http://www.w3.org/2000/svg" xmlns:xlink="http://www.w3.org/1999/xlink" width="800" zoomAndPan="magnify" viewBox="0 0 600 299.999988" height="400" preserveAspectRatio="xMidYMid meet" version="1.0"><defs><g/><clipPath id="2b8850be3e"><path d="M 33.515625 133.429688 L 111.515625 133.429688 L 111.515625 237.679688 L 33.515625 237.679688 Z M 33.515625 133.429688 " clip-rule="nonzero"/></clipPath><clipPath id="2a7f078b4a"><path d="M 6.859375 50.265625 L 81.582031 50.265625 L 81.582031 124.984375 L 6.859375 124.984375 Z M 6.859375 50.265625 " clip-rule="nonzero"/></clipPath><clipPath id="b41eea73be"><path d="M 44.222656 50.265625 C 23.585938 50.265625 6.859375 66.992188 6.859375 87.625 C 6.859375 108.257812 23.585938 124.984375 44.222656 124.984375 C 64.855469 124.984375 81.582031 108.257812 81.582031 87.625 C 81.582031 66.992188 64.855469 50.265625 44.222656 50.265625 " clip-rule="nonzero"/></clipPath></defs><g fill="#ffffff" fill-opacity="1"><g transform="translate(144.953686, 185.52035)"><g><path d="M 42.078125 1.390625 C 36.023438 1.390625 30.59375 0.566406 25.78125 -1.078125 C 20.976562 -2.734375 16.972656 -4.898438 13.765625 -7.578125 C 10.554688 -10.253906 8.160156 -13.191406 6.578125 -16.390625 L 12.78125 -23.90625 L 14.421875 -23.90625 C 20.390625 -13.851562 29.609375 -8.828125 42.078125 -8.828125 C 49.328125 -8.828125 54.71875 -10.335938 58.25 -13.359375 C 61.78125 -16.390625 63.546875 -20.609375 63.546875 -26.015625 C 63.546875 -29.171875 62.960938 -31.847656 61.796875 -34.046875 C 60.640625 -36.242188 58.722656 -38.117188 56.046875 -39.671875 C 53.367188 -41.234375 49.722656 -42.585938 45.109375 -43.734375 L 33.84375 -46.5 C 25.457031 -48.519531 19.28125 -51.734375 15.3125 -56.140625 C 11.34375 -60.554688 9.359375 -66.144531 9.359375 -72.90625 C 9.359375 -77.6875 10.585938 -81.953125 13.046875 -85.703125 C 15.503906 -89.460938 19.101562 -92.394531 23.84375 -94.5 C 28.582031 -96.613281 34.242188 -97.671875 40.828125 -97.671875 C 48.078125 -97.671875 54.191406 -96.648438 59.171875 -94.609375 C 64.148438 -92.566406 68.132812 -89.503906 71.125 -85.421875 L 65.59375 -77.96875 L 63.953125 -77.96875 C 61.179688 -81.351562 57.90625 -83.832031 54.125 -85.40625 C 50.351562 -86.988281 45.921875 -87.78125 40.828125 -87.78125 C 34.160156 -87.78125 29.125 -86.484375 25.71875 -83.890625 C 22.3125 -81.304688 20.609375 -77.734375 20.609375 -73.171875 C 20.609375 -68.816406 21.859375 -65.351562 24.359375 -62.78125 C 26.867188 -60.21875 31.085938 -58.234375 37.015625 -56.828125 L 48.53125 -54.0625 C 57.882812 -51.875 64.65625 -48.503906 68.84375 -43.953125 C 73.039062 -39.410156 75.140625 -33.609375 75.140625 -26.546875 C 75.140625 -21.097656 73.921875 -16.273438 71.484375 -12.078125 C 69.046875 -7.890625 65.347656 -4.597656 60.390625 -2.203125 C 55.429688 0.191406 49.328125 1.390625 42.078125 1.390625 Z M 42.078125 1.390625 "/></g></g></g><g fill="#ffffff" fill-opacity="1"><g transform="translate(227.473972, 185.52035)"><g><path d="M 49.125 -11.53125 L 52.546875 -3.8125 C 50.835938 -2.101562 48.585938 -0.8125 45.796875 0.0625 C 43.015625 0.945312 40 1.390625 36.75 1.390625 C 22.875 1.390625 15.9375 -5.632812 15.9375 -19.6875 L 15.9375 -63.8125 L 3.296875 -63.8125 L 3.296875 -72.640625 L 15.9375 -72.640625 L 15.9375 -88.046875 L 26.671875 -89.828125 L 26.671875 -72.640625 L 50.046875 -72.640625 L 50.046875 -63.8125 L 26.671875 -63.8125 L 26.671875 -20.75 C 26.671875 -12.40625 30.289062 -8.234375 37.53125 -8.234375 C 41.488281 -8.234375 44.894531 -9.332031 47.75 -11.53125 Z M 49.125 -11.53125 "/></g></g></g><g fill="#ffffff" fill-opacity="1"><g transform="translate(282.794829, 185.52035)"><g><path d="M 41.6875 1.390625 C 34.832031 1.390625 28.867188 -0.0546875 23.796875 -2.953125 C 18.734375 -5.859375 14.828125 -10.128906 12.078125 -15.765625 C 9.335938 -21.410156 7.96875 -28.25 7.96875 -36.28125 C 7.96875 -44.320312 9.335938 -51.171875 12.078125 -56.828125 C 14.828125 -62.492188 18.734375 -66.773438 23.796875 -69.671875 C 28.867188 -72.566406 34.832031 -74.015625 41.6875 -74.015625 C 48.539062 -74.015625 54.5 -72.566406 59.5625 -69.671875 C 64.632812 -66.773438 68.539062 -62.492188 71.28125 -56.828125 C 74.03125 -51.171875 75.40625 -44.320312 75.40625 -36.28125 C 75.40625 -28.25 74.03125 -21.410156 71.28125 -15.765625 C 68.539062 -10.128906 64.632812 -5.859375 59.5625 -2.953125 C 54.5 -0.0546875 48.539062 1.390625 41.6875 1.390625 Z M 41.6875 -8.234375 C 48.925781 -8.234375 54.46875 -10.515625 58.3125 -15.078125 C 62.15625 -19.648438 64.078125 -26.71875 64.078125 -36.28125 C 64.078125 -45.894531 62.15625 -52.984375 58.3125 -57.546875 C 54.46875 -62.117188 48.925781 -64.40625 41.6875 -64.40625 C 34.445312 -64.40625 28.894531 -62.109375 25.03125 -57.515625 C 21.164062 -52.929688 19.234375 -45.851562 19.234375 -36.28125 C 19.234375 -26.71875 21.164062 -19.648438 25.03125 -15.078125 C 28.894531 -10.515625 34.445312 -8.234375 41.6875 -8.234375 Z M 41.6875 -8.234375 "/></g></g></g><g fill="#ffffff" fill-opacity="1"><g transform="translate(366.171263, 185.52035)"><g><path d="M 12.640625 0 L 12.640625 -72.640625 L 22.859375 -72.640625 L 22.859375 -61.25 L 24.234375 -60.921875 C 27.617188 -69.171875 33.984375 -73.296875 43.328125 -73.296875 C 48.296875 -73.296875 52.007812 -72.394531 54.46875 -70.59375 L 51.703125 -61.515625 L 50.375 -61.25 C 47.65625 -62.601562 44.671875 -63.28125 41.421875 -63.28125 C 35.628906 -63.28125 31.171875 -61.109375 28.046875 -56.765625 C 24.929688 -52.421875 23.375 -45.375 23.375 -35.625 L 23.375 0 Z M 12.640625 0 "/></g></g></g><g fill="#ffffff" fill-opacity="1"><g transform="translate(422.282417, 185.52035)"><g><path d="M 61.515625 -72.640625 L 72.515625 -72.640625 L 40.046875 11.390625 C 38.203125 16.046875 36.132812 19.789062 33.84375 22.625 C 31.5625 25.457031 28.863281 27.53125 25.75 28.84375 C 22.632812 30.164062 18.898438 30.828125 14.546875 30.828125 C 12.085938 30.828125 9.796875 30.613281 7.671875 30.1875 C 5.546875 29.769531 3.710938 29.191406 2.171875 28.453125 L 4.15625 19.953125 L 5.328125 19.5625 C 6.390625 20.082031 7.707031 20.53125 9.28125 20.90625 C 10.863281 21.28125 12.488281 21.46875 14.15625 21.46875 C 17.101562 21.46875 19.539062 21.070312 21.46875 20.28125 C 23.394531 19.488281 25.050781 18.179688 26.4375 16.359375 C 27.820312 14.535156 29.109375 12.023438 30.296875 8.828125 L 32.859375 1.71875 L 3.6875 -72.640625 L 15.28125 -72.640625 L 38.125 -13.375 L 39.375 -13.375 Z M 61.515625 -72.640625 "/></g></g></g><g fill="#ffffff" fill-opacity="1"><g transform="translate(498.875468, 185.52035)"><g><path d="M 16.203125 0 L 3.8125 0 L 33.84375 -49.53125 L 5.203125 -96.28125 L 17.90625 -96.28125 L 42.078125 -57.234375 L 43.734375 -57.234375 L 68.234375 -96.28125 L 80.34375 -96.28125 L 51.703125 -49.53125 L 81.734375 0 L 69.078125 0 L 43.46875 -41.6875 L 41.8125 -41.6875 Z M 16.203125 0 "/></g></g></g><g clip-path="url(#2b8850be3e)"><path fill="#ffffff" d="M 72.515625 133.429688 C 71.246094 133.429688 69.976562 133.492188 68.710938 133.617188 C 67.445312 133.742188 66.1875 133.929688 64.941406 134.175781 C 63.691406 134.425781 62.460938 134.734375 61.242188 135.105469 C 60.027344 135.476562 58.832031 135.90625 57.65625 136.390625 C 56.480469 136.878906 55.332031 137.425781 54.210938 138.027344 C 53.089844 138.625 52 139.28125 50.941406 139.988281 C 49.882812 140.699219 48.863281 141.457031 47.878906 142.265625 C 46.894531 143.074219 45.953125 143.929688 45.054688 144.832031 C 44.15625 145.734375 43.304688 146.675781 42.496094 147.664062 C 41.6875 148.648438 40.933594 149.671875 40.226562 150.730469 C 39.519531 151.792969 38.867188 152.882812 38.265625 154.007812 C 37.667969 155.132812 37.125 156.285156 36.636719 157.460938 C 36.148438 158.640625 35.722656 159.839844 35.351562 161.058594 C 34.984375 162.277344 34.675781 163.515625 34.425781 164.765625 C 34.179688 166.015625 33.992188 167.277344 33.867188 168.542969 C 33.742188 169.8125 33.679688 171.085938 33.679688 172.359375 C 33.679688 173.636719 33.742188 174.90625 33.867188 176.175781 C 33.992188 177.445312 34.179688 178.703125 34.425781 179.957031 C 34.675781 181.207031 34.984375 182.441406 35.351562 183.660156 C 35.722656 184.882812 36.148438 186.082031 36.636719 187.257812 C 37.125 188.4375 37.667969 189.589844 38.265625 190.710938 C 38.867188 191.835938 39.519531 192.929688 40.226562 193.988281 C 40.933594 195.050781 41.6875 196.074219 42.496094 197.058594 C 43.304688 198.042969 44.15625 198.988281 45.054688 199.890625 C 45.953125 200.789062 46.894531 201.644531 47.878906 202.453125 C 48.863281 203.265625 49.882812 204.023438 50.941406 204.730469 C 52 205.4375 53.089844 206.09375 54.210938 206.695312 C 55.332031 207.296875 56.480469 207.839844 57.65625 208.328125 C 58.832031 208.816406 60.027344 209.246094 61.242188 209.617188 C 62.460938 209.984375 63.691406 210.296875 64.941406 210.542969 C 66.1875 210.792969 67.445312 210.980469 68.710938 211.105469 C 69.976562 211.230469 71.246094 211.292969 72.515625 211.292969 C 74.046875 211.273438 75.570312 211.167969 77.085938 210.972656 C 74.410156 222.867188 69.011719 230.398438 68.996094 230.417969 C 68.695312 230.839844 68.480469 231.300781 68.347656 231.796875 C 68.214844 232.296875 68.171875 232.800781 68.21875 233.316406 C 68.265625 233.828125 68.398438 234.316406 68.621094 234.78125 C 68.84375 235.25 69.136719 235.660156 69.503906 236.019531 C 69.875 236.378906 70.292969 236.664062 70.761719 236.875 C 71.234375 237.082031 71.726562 237.207031 72.238281 237.238281 C 72.75 237.273438 73.253906 237.214844 73.746094 237.070312 C 74.242188 236.921875 74.691406 236.695312 75.105469 236.382812 C 75.105469 236.382812 108.515625 211.824219 111.101562 176.617188 C 111.261719 175.203125 111.347656 173.785156 111.355469 172.359375 C 111.355469 172.214844 111.351562 172.074219 111.335938 171.929688 C 111.324219 170.664062 111.246094 169.402344 111.109375 168.144531 C 110.972656 166.886719 110.777344 165.636719 110.519531 164.398438 C 110.261719 163.160156 109.941406 161.933594 109.566406 160.726562 C 109.1875 159.519531 108.753906 158.332031 108.261719 157.167969 C 107.765625 156 107.21875 154.863281 106.617188 153.75 C 106.011719 152.640625 105.355469 151.558594 104.648438 150.511719 C 103.9375 149.464844 103.179688 148.453125 102.375 147.480469 C 101.566406 146.507812 100.714844 145.574219 99.816406 144.683594 C 98.917969 143.792969 97.980469 142.949219 97 142.152344 C 96.023438 141.351562 95.003906 140.605469 93.953125 139.90625 C 92.898438 139.207031 91.816406 138.558594 90.699219 137.96875 C 89.585938 137.375 88.445312 136.835938 87.277344 136.355469 C 86.109375 135.875 84.917969 135.449219 83.710938 135.085938 C 82.5 134.71875 81.277344 134.414062 80.039062 134.167969 C 78.800781 133.921875 77.554688 133.738281 76.296875 133.613281 C 75.039062 133.492188 73.78125 133.429688 72.515625 133.429688 Z M 72.515625 133.429688 " fill-opacity="1" fill-rule="nonzero"/></g><g clip-path="url(#2a7f078b4a)"><g clip-path="url(#b41eea73be)"><path fill="#ffffff" d="M 6.859375 50.265625 L 81.582031 50.265625 L 81.582031 124.984375 L 6.859375 124.984375 Z M 6.859375 50.265625 " fill-opacity="1" fill-rule="nonzero"/></g></g></svg>